<svg width="768" height="960" viewBox="0 0 768 960" fill="none" xmlns="http://www.w3.org/2000/svg">
  <defs>
    <linearGradient id="bg" x1="96" y1="84" x2="650" y2="900" gradientUnits="userSpaceOnUse">
      <stop stop-color="#290F25"/>
      <stop offset="1" stop-color="#FF69B4"/>
    </linearGradient>
  </defs>
  <rect width="768" height="960" rx="40" fill="url(#bg)"/>
  <rect x="26" y="26" width="716" height="908" rx="28" stroke="white" stroke-opacity="0.18"/>
  <circle cx="384" cy="320" r="116" fill="#FFF0F8" fill-opacity="0.15"/>
  <path d="M248 606C248 508.701 326.701 430 424 430H344C441.299 430 520 508.701 520 606V652H248V606Z" fill="#FFF0F8" fill-opacity="0.2"/>
  <path d="M290 264H478V396H290V264Z" rx="24" fill="#FFD2E8" fill-opacity="0.82"/>
  <circle cx="336" cy="316" r="18" fill="#FF8FC8"/>
  <circle cx="384" cy="316" r="18" fill="#FF8FC8"/>
  <circle cx="432" cy="316" r="18" fill="#FF8FC8"/>
  <path d="M322 356H446" stroke="#FF8FC8" stroke-width="18" stroke-linecap="round"/>
  <text x="70" y="760" fill="#FFF1F8" font-family="Inter, Arial, sans-serif" font-size="26" letter-spacing="3.2">FRONTEND SPECIALIST</text>
  <text x="66" y="830" fill="white" font-family="Inter, Arial, sans-serif" font-size="72" font-weight="700">Güllü Erhan</text>
  <text x="70" y="884" fill="#FFD9ED" font-family="Inter, Arial, sans-serif" font-size="30">UI polish • Layout • Visual quality</text>
</svg>
