<svg width="768" height="960" viewBox="0 0 768 960" fill="none" xmlns="http://www.w3.org/2000/svg">
  <defs>
    <linearGradient id="bg" x1="96" y1="88" x2="660" y2="872" gradientUnits="userSpaceOnUse">
      <stop stop-color="#091A2E"/>
      <stop offset="1" stop-color="#4A90D9"/>
    </linearGradient>
    <radialGradient id="halo" cx="0" cy="0" r="1" gradientUnits="userSpaceOnUse" gradientTransform="translate(384 356) rotate(90) scale(232 232)">
      <stop stop-color="#D6ECFF" stop-opacity="0.9"/>
      <stop offset="1" stop-color="#D6ECFF" stop-opacity="0"/>
    </radialGradient>
  </defs>
  <rect width="768" height="960" rx="40" fill="url(#bg)"/>
  <rect x="26" y="26" width="716" height="908" rx="28" stroke="white" stroke-opacity="0.18"/>
  <circle cx="384" cy="356" r="232" fill="url(#halo)"/>
  <circle cx="384" cy="322" r="112" fill="#E8F5FF" fill-opacity="0.18"/>
  <path d="M255 590C255 504.396 324.396 435 410 435H358C443.604 435 513 504.396 513 590V642H255V590Z" fill="#E8F5FF" fill-opacity="0.22"/>
  <path d="M324 304L384 246L444 304L384 362L324 304Z" fill="#E8F5FF" fill-opacity="0.85"/>
  <path d="M384 168L404 210H364L384 168Z" fill="#A7D2FF"/>
  <text x="70" y="760" fill="#EAF6FF" font-family="Inter, Arial, sans-serif" font-size="26" letter-spacing="3.2">ORCHESTRATOR</text>
  <text x="66" y="830" fill="white" font-family="Inter, Arial, sans-serif" font-size="88" font-weight="700">Polat</text>
  <text x="70" y="884" fill="#D4E9FF" font-family="Inter, Arial, sans-serif" font-size="30">Coordinator • ClarityGate • Tier routing</text>
</svg>
